<svg width="56" height="56" viewBox="0 0 56 56" fill="none" xmlns="http://www.w3.org/2000/svg">
<path d="M45.5003 14.6373V12.7282C45.5003 9.56958 42.8842 7.00098 39.667 7.00098H10.5003C7.28316 7.00098 4.66699 9.56958 4.66699 12.7282V43.2737C4.66699 46.4324 7.28316 49.001 10.5003 49.001H45.5003C48.7175 49.001 51.3337 46.4324 51.3337 43.2737V20.3646C51.3337 17.2059 48.7175 14.6373 45.5003 14.6373ZM10.5003 10.8192H39.667C40.7394 10.8192 41.6114 11.6754 41.6114 12.7282V14.6373H10.5003C9.42794 14.6373 8.55588 13.7811 8.55588 12.7282C8.55588 11.6754 9.42794 10.8192 10.5003 10.8192ZM45.5003 45.1828H10.5003C9.42794 45.1828 8.55588 44.3266 8.55588 43.2737V18.1283C9.16447 18.3399 9.81863 18.4555 10.5003 18.4555H45.5003C46.5727 18.4555 47.4448 19.3117 47.4448 20.3646V25.1373H36.7503C32.9977 25.1373 29.9448 28.1357 29.9448 31.8192C29.9448 35.5026 32.9977 38.501 36.7503 38.501H47.4448V43.2737C47.4448 44.3266 46.5727 45.1828 45.5003 45.1828ZM47.4448 34.6828H42.8946C43.3223 33.7958 43.5559 32.8254 43.5559 31.8192C43.5559 30.7938 43.3119 29.8252 42.8899 28.9555H47.4448V34.6828ZM33.8337 31.8192C33.8337 30.2405 35.1425 28.9555 36.7503 28.9555C38.3582 28.9555 39.667 30.2405 39.667 31.8192C39.667 32.5835 39.3627 33.3074 38.8239 33.841C38.2661 34.384 37.5289 34.6828 36.7503 34.6828C35.1425 34.6828 33.8337 33.3978 33.8337 31.8192Z" fill="#E20613"/>
</svg>
