<svg width="30" height="30" fill="none" xmlns="http://www.w3.org/2000/svg"><path d="M21.727 7.577a.464.464 0 00-.825.19l-.413 2.086L15.41.247A.464.464 0 0015 0h-.002a.464.464 0 00-.41.25l-7.03 13.6-.856-2.71a.464.464 0 00-.835-.107c-1.964 3.112-2.96 5.675-2.96 7.617 0 3.192 1.264 6.102 3.558 8.194C8.697 28.879 11.728 30 15 30c3.272 0 6.303-1.12 8.535-3.156 2.294-2.092 3.558-5.002 3.558-8.195 0-2.631-1.805-6.357-5.366-11.072z" fill="#FF6C44"/><path d="M9 20.024C9 16.724 15 10 15 10s6 6.724 6 10.024c0 3.3-2.686 5.976-6 5.976s-6-2.675-6-5.976z" fill="#FFD200"/></svg>