<svg width="22" height="22" viewBox="0 0 22 22" fill="none" xmlns="http://www.w3.org/2000/svg">
<path d="M21.2 9.2735C21.2 7.4759 20.5 5.78586 19.2289 4.51475L17.4851 2.77095C16.214 1.49984 14.524 0.799805 12.7264 0.799805C10.9287 0.799805 9.23871 1.49984 7.9676 2.77095C7.21221 3.52634 6.64173 4.45994 6.31776 5.47086C6.06645 6.2551 5.96188 7.08893 6.00806 7.9136C3.02777 8.60514 0.800049 11.2822 0.800049 14.4699C0.800049 18.1808 3.81908 21.1998 7.52995 21.1998H9.99603C13.304 21.1998 16.0622 18.8007 16.6221 15.651C17.5995 15.3213 18.4941 14.7671 19.2289 14.0322C20.5 12.7611 21.2 11.0711 21.2 9.2735ZM18.3366 5.40701C18.5897 5.66005 18.8147 5.93362 19.0104 6.22376C18.1384 6.2127 17.3003 5.86557 16.6633 5.22854C16.0422 4.60741 15.6936 3.77976 15.6706 2.9201C16.0002 3.1315 16.3094 3.37975 16.5928 3.66321L18.3366 5.40701ZM7.52995 9.00187H9.99603C10.3562 9.00187 10.7081 9.03724 11.049 9.10399C10.4246 9.71221 9.58698 10.0589 8.68665 10.0589C7.80882 10.0589 6.97767 9.72058 6.35369 9.12965C6.73271 9.04624 7.12619 9.00187 7.52995 9.00187ZM9.99603 19.9379H7.52995C4.51487 19.9379 2.0619 17.485 2.0619 14.4699C2.0619 12.3412 3.28481 10.4928 5.06487 9.58993C5.94548 10.6803 7.27169 11.3207 8.6866 11.3207C10.1399 11.3207 11.4738 10.6623 12.352 9.53605C14.191 10.4178 15.464 12.2979 15.464 14.4699C15.4641 17.485 13.0111 19.9379 9.99603 19.9379ZM16.7222 14.2572C16.6095 10.6444 13.6357 7.74001 9.99603 7.74001H7.52995C7.44023 7.74001 7.35106 7.74232 7.26218 7.74582C7.19829 6.22137 7.76394 4.75917 8.8599 3.66321C9.89264 2.63042 11.2658 2.06166 12.7264 2.06166C13.3155 2.06166 13.8903 2.15432 14.4344 2.3325C14.2849 3.72731 14.7697 5.11947 15.771 6.1208C16.6593 7.00906 17.8322 7.4868 19.0493 7.4868C19.2415 7.4868 19.4347 7.47464 19.6282 7.45054C19.8319 8.0283 19.9382 8.6427 19.9382 9.27346C19.9382 10.734 19.3694 12.1072 18.3366 13.14C17.8681 13.6085 17.3198 13.9867 16.7222 14.2572Z" fill="white"/>
</svg>
