<svg width="18" height="22" viewBox="0 0 18 22" fill="none" xmlns="http://www.w3.org/2000/svg">
<path d="M16.8606 16.401L12.6761 7.50964V0.799805H5.32393V7.50964L1.13949 16.4009C0.927536 16.8511 0.820068 17.333 0.820068 17.8332C0.820068 19.6896 2.3303 21.1998 4.18666 21.1998H13.8134C15.6698 21.1998 17.18 19.6896 17.18 17.8332C17.18 17.333 17.0725 16.8511 16.8606 16.401ZM6.58578 7.7917V2.06166H11.4143V7.7917L14.1002 13.499H3.8998L6.58578 7.7917ZM13.8134 19.9379H4.18661C3.02604 19.9379 2.08188 18.9938 2.08188 17.8332C2.08188 17.5203 2.14893 17.2192 2.28117 16.9383L3.30592 14.7608H14.694L15.7188 16.9384C15.8511 17.2192 15.9181 17.5202 15.9181 17.8332C15.9181 18.9938 14.9739 19.9379 13.8134 19.9379Z" fill="white"/>
</svg>
