<svg width="48" height="48" viewBox="0 0 48 48" fill="none" xmlns="http://www.w3.org/2000/svg">
<path d="M7.59383 33.1149H11.2397V29.4691H7.59383V33.1149ZM7.59383 40.042H11.2397V36.3962H7.59383V40.042ZM14.8855 40.042H18.5313V36.3962H14.8855V40.042ZM7.59383 25.8232H25.823V14.8857H7.59383V25.8232ZM11.2397 18.5316H22.1772V22.1774H11.2397V18.5316ZM14.8855 33.1149H18.5313V29.4691H14.8855V33.1149ZM41.8647 11.2399H32.4365C31.684 9.11822 29.6578 7.59408 27.2813 7.59408H25.823V0.666992H7.59383V7.59408H6.1355C3.12003 7.59408 0.666748 10.0474 0.666748 13.0628V41.8649C0.666748 44.8804 3.12003 47.3337 6.1355 47.3337H27.2813C29.6578 47.3337 31.6839 45.8095 32.4365 43.6878H41.8647C44.8801 43.6878 47.3334 41.2345 47.3334 38.2191V16.7087C47.3334 13.6932 44.8801 11.2399 41.8647 11.2399ZM11.2397 4.31283H22.1772V7.59408H11.2397V4.31283ZM29.1042 41.8649C29.1042 42.8701 28.2865 43.6878 27.2813 43.6878H6.1355C5.13034 43.6878 4.31258 42.8701 4.31258 41.8649V13.0628C4.31258 12.0577 5.13034 11.2399 6.1355 11.2399H27.2813C28.2865 11.2399 29.1042 12.0577 29.1042 13.0628V41.8649ZM36.3959 40.042H32.7501V14.8857H36.3959V40.042ZM43.6876 38.2191C43.6876 39.2242 42.8698 40.042 41.8647 40.042H40.0417V14.8857H41.8647C42.8698 14.8857 43.6876 15.7035 43.6876 16.7087V38.2191ZM22.1772 33.1149H25.823V29.4691H22.1772V33.1149ZM22.1772 40.042H25.823V36.3962H22.1772V40.042Z" fill="#E20613"/>
</svg>
