<svg width="16" height="22" viewBox="0 0 16 22" fill="none" xmlns="http://www.w3.org/2000/svg">
<path d="M7.99955 0.799805C3.84093 0.799805 0.192993 6.14162 0.192993 12.2312C0.192993 14.5577 1.00529 16.7833 2.48027 18.4979C3.20063 19.3354 4.0348 19.9962 4.95957 20.462C5.93145 20.9516 6.95406 21.1998 7.999 21.1998C9.0439 21.1998 10.0666 20.9516 11.0387 20.4621C11.9637 19.9964 12.7981 19.3356 13.5187 18.4983C14.9945 16.7835 15.8072 14.5579 15.8072 12.2312C15.8072 6.14162 12.1588 0.799805 7.99955 0.799805ZM7.999 19.9379C4.45171 19.9379 1.45485 16.4087 1.45485 12.2312C1.45485 6.90887 4.57428 2.06166 7.99955 2.06166C11.4254 2.06166 14.5453 6.90887 14.5453 12.2312C14.5453 16.4087 11.5475 19.9379 7.999 19.9379Z" fill="white"/>
<path d="M5.66899 15.7551C4.86199 14.817 4.39919 13.5326 4.39919 12.2314H3.13733C3.13733 13.8301 3.71139 15.4144 4.71238 16.578C5.64296 17.6598 6.81022 18.2556 7.99901 18.2556V16.9938C7.1836 16.9938 6.35612 16.5539 5.66899 15.7551Z" fill="white"/>
</svg>
