<svg width="22" height="22" viewBox="0 0 22 22" fill="none" xmlns="http://www.w3.org/2000/svg">
<path d="M21.2 6.75968L20.2913 5.85096L18.8297 7.31255L15.9165 6.99212L19.6276 3.28098L18.7189 2.37226L15.0078 6.0834L14.6873 3.17016L16.1489 1.70853L15.2402 0.799805L4.15246 11.8875L4.65302 16.4381L0.800049 20.2911L1.70877 21.1998L5.56175 17.3468L10.1123 17.8474L21.2 6.75968ZM8.88113 12.21L8.5607 9.29672L10.4592 7.39818L10.7797 10.3115L8.88113 12.21ZM11.6884 11.2202L14.6017 11.5406L12.7031 13.4392L9.78985 13.1188L11.6884 11.2202ZM17.665 8.47727L15.7664 10.3758L12.8532 10.0554L14.7518 8.15684L17.665 8.47727ZM13.843 7.24812L11.9444 9.1467L11.624 6.23342L13.5225 4.33488L13.843 7.24812ZM5.49732 12.3601L7.3959 10.4615L7.71632 13.3748L5.81779 15.2733L5.49732 12.3601ZM6.72651 16.1821L8.62505 14.2835L11.5383 14.604L9.63971 16.5025L6.72651 16.1821Z" fill="white"/>
</svg>
