<svg width="22" height="18" viewBox="0 0 22 18" fill="none" xmlns="http://www.w3.org/2000/svg">
<path d="M18.2126 3.19309C16.286 1.26658 13.7246 0.205566 11 0.205566C8.27553 0.205566 5.71409 1.26658 3.78753 3.19309C1.86106 5.11961 0.800049 7.68105 0.800049 10.4056V10.7344L6.85948 14.9682V17.794H15.1406V14.9682L21.2 10.7344V10.4056C21.2 7.68105 20.139 5.11961 18.2126 3.19309ZM11.631 14.0085V1.48988C13.6391 1.63058 15.4664 2.43724 16.8927 3.69022L12.3435 14.0085H11.631ZM9.65664 14.0085L5.10744 3.69022C6.53371 2.43724 8.36105 1.63058 10.3691 1.48988V14.0085H9.65664ZM2.06775 10.0808C2.14157 8.0223 2.9153 6.1394 4.15696 4.66231L8.27755 14.0085H7.68898L2.06775 10.0808ZM8.12134 16.5322V15.2704H13.8788V16.5322H8.12134ZM14.3111 14.0085H13.7225L17.8431 4.66236C19.0848 6.13944 19.8586 8.02234 19.9323 10.0808L14.3111 14.0085Z" fill="white"/>
</svg>
