<svg width="22" height="22" viewBox="0 0 22 22" fill="none" xmlns="http://www.w3.org/2000/svg">
<path d="M19.3749 2.62487C18.1981 1.44798 16.6333 0.799805 14.9688 0.799805C13.3043 0.799805 11.7396 1.44798 10.5627 2.62487C9.41638 3.77114 9.01326 4.73982 8.65759 5.59448C8.37085 6.28353 8.12319 6.87863 7.50114 7.50068C6.87909 8.12273 6.28395 8.37039 5.5949 8.65721C4.7402 9.01293 3.77147 9.41609 2.62516 10.5624C0.195584 12.992 0.195584 16.9452 2.62516 19.3747C3.80205 20.5516 5.36688 21.1998 7.03131 21.1998C8.69574 21.1998 10.2605 20.5516 11.4375 19.3747C12.5838 18.2284 12.987 17.2597 13.3427 16.405C13.6295 15.7159 13.8771 15.1208 14.4992 14.4987C15.1212 13.8767 15.7164 13.629 16.4054 13.3423C17.26 12.9866 18.2287 12.5835 19.375 11.4372C21.8045 9.00763 21.8045 5.05445 19.3749 2.62487ZM18.138 4.88212C17.7309 5.69635 17.0629 6.6125 16.2326 7.50131C15.9796 7.18896 15.7049 6.88363 15.4106 6.58928C15.1162 6.29489 14.8109 6.02023 14.4986 5.76727C15.3874 4.93701 16.3036 4.26894 17.1178 3.86182C18.0593 3.39103 18.4456 3.48011 18.4827 3.51717C18.5197 3.55418 18.6089 3.94048 18.138 4.88212ZM11.7948 16.7774C11.7589 16.7793 11.7224 16.7805 11.6849 16.7805C11.1007 16.7804 10.3122 16.5432 9.45567 16.0514C10.137 15.315 10.5664 14.7489 10.9553 14.2361C11.2814 13.806 11.5942 13.3939 12.0276 12.9195L13.1854 14.0773C12.6819 14.709 12.4263 15.3227 12.1777 15.92C12.061 16.2004 11.9427 16.4842 11.7948 16.7774ZM7.48179 14.5181C7.17794 14.2142 6.90672 13.9066 6.66587 13.6005C7.42227 12.8874 7.98199 12.4628 8.52619 12.05C8.99509 11.6945 9.44393 11.3537 9.97349 10.8655L11.1344 12.0264C10.6463 12.556 10.3055 13.0048 9.9499 13.4737C9.53719 14.0179 9.11257 14.5776 8.39933 15.334C8.0932 15.0932 7.78552 14.8218 7.48179 14.5181ZM10.2053 5.22244C10.799 5.18984 11.633 5.42387 12.5449 5.94767C11.8634 6.68426 11.434 7.25037 11.045 7.76331C10.7188 8.19344 10.406 8.60556 9.97248 9.08002L8.81469 7.92222C9.3183 7.2905 9.57395 6.67673 9.82257 6.07932C9.93921 5.79915 10.0574 5.51553 10.2053 5.22244ZM10.8657 9.9732C11.354 9.4436 11.6948 8.99472 12.0504 8.52577C12.4631 7.98161 12.8876 7.42198 13.6007 6.66562C13.9068 6.90647 14.2144 7.17769 14.5183 7.48154C14.8221 7.78535 15.0933 8.09304 15.3342 8.39916C14.5778 9.11224 14.0182 9.53677 13.474 9.94944C13.0051 10.305 12.5563 10.6459 12.0266 11.1341L10.8657 9.9732ZM14.9688 2.06166C15.6958 2.06166 16.3989 2.21708 17.0404 2.51155C15.8968 2.97032 14.5897 3.92811 13.453 5.01979C13.125 4.81532 12.7939 4.63597 12.4633 4.48531C11.9513 4.25199 11.4588 4.09552 10.9974 4.01644C11.1326 3.8545 11.2837 3.68836 11.4549 3.51717C12.3935 2.57856 13.6415 2.06166 14.9688 2.06166ZM6.07974 9.8222C6.67711 9.57357 7.29079 9.31796 7.92243 8.81444L9.08022 9.97223C8.60585 10.4056 8.19377 10.7184 7.76365 11.0446C7.2507 11.4336 6.68451 11.8631 5.94792 12.5447C5.42408 11.6327 5.19009 10.7987 5.22265 10.205C5.51582 10.057 5.79953 9.93884 6.07974 9.8222ZM3.51742 11.4547C3.68861 11.2835 3.85476 11.1324 4.01669 10.9972C4.09577 11.4587 4.25224 11.9511 4.48556 12.4631C4.63618 12.7937 4.81557 13.1249 5.02004 13.4528C3.92929 14.5886 2.97221 15.8945 2.51302 17.0374C1.67578 15.2037 2.01039 12.9617 3.51742 11.4547ZM3.86207 17.1175C4.26919 16.3033 4.93726 15.3871 5.76752 14.4983C6.02052 14.8106 6.29518 15.1159 6.58953 15.4103C6.88388 15.7046 7.18921 15.9793 7.50156 16.2323C6.61275 17.0626 5.6966 17.7306 4.88237 18.1377C3.94069 18.6086 3.55448 18.5195 3.51742 18.4824C3.48036 18.4454 3.39123 18.0591 3.86207 17.1175ZM7.03131 19.9379C6.30402 19.9379 5.6007 19.7824 4.95892 19.4877C6.10279 19.0291 7.40995 18.0716 8.54692 16.9797C8.87324 17.1832 9.20267 17.3618 9.53155 17.5119C10.0453 17.7465 10.5395 17.904 11.0025 17.9834C10.8673 18.1453 10.7163 18.3113 10.5452 18.4825C9.60659 19.4211 8.35865 19.9379 7.03131 19.9379ZM15.9205 12.1772C15.3231 12.4259 14.7094 12.6815 14.0776 13.1851L12.9198 12.0273C13.3943 11.5938 13.8064 11.2811 14.2365 10.9549C14.7494 10.566 15.3154 10.1366 16.0519 9.45521C16.5755 10.3671 16.8097 11.2013 16.7773 11.7946C16.4842 11.9425 16.2007 12.0607 15.9205 12.1772ZM18.4827 10.5449C18.3115 10.7161 18.1454 10.8672 17.9835 11.0023C17.9041 10.5393 17.7467 10.045 17.5121 9.53121C17.362 9.20238 17.1834 8.87303 16.98 8.5468C18.0708 7.41104 19.0278 6.10519 19.487 4.96225C20.3243 6.79593 19.9897 9.03791 18.4827 10.5449Z" fill="white"/>
</svg>
