<svg width="30" height="30" fill="none" xmlns="http://www.w3.org/2000/svg"><g clip-path="url(#clip0)"><path d="M28.621 15.001l1.316-3.433a.939.939 0 00-.285-1.065L26.8 8.19l-.578-3.632a.937.937 0 00-.78-.778l-3.631-.578L19.498.347a.939.939 0 00-1.063-.285L15 1.38 11.567.064a.935.935 0 00-1.063.285L8.191 3.204l-3.632.578a.94.94 0 00-.778.778l-.578 3.632-2.855 2.313a.938.938 0 00-.285 1.063l1.316 3.433-1.316 3.433a.935.935 0 00.285 1.063l2.855 2.312.578 3.631a.937.937 0 00.778.78l3.632.578 2.313 2.853a.933.933 0 001.065.285L15 28.622l3.433 1.316a.943.943 0 001.065-.287l2.312-2.853 3.631-.578a.94.94 0 00.78-.78l.578-3.631 2.853-2.312a.936.936 0 00.285-1.063L28.621 15z" fill="#E20613"/><path d="M12.188 13.126a2.816 2.816 0 01-2.812-2.812A2.816 2.816 0 0112.188 7.5 2.816 2.816 0 0115 10.314a2.816 2.816 0 01-2.812 2.812zm0-3.75a.938.938 0 100 1.876.938.938 0 000-1.876zM17.813 22.5A2.816 2.816 0 0115 19.688a2.816 2.816 0 012.813-2.812 2.816 2.816 0 012.812 2.812 2.816 2.816 0 01-2.812 2.813zm0-3.75a.94.94 0 00-.938.938.94.94 0 00.938.938.94.94 0 00.937-.938.94.94 0 00-.937-.937zm-7.5 3.75a.937.937 0 01-.761-1.483l9.374-13.124a.937.937 0 111.526 1.09l-9.374 13.124a.942.942 0 01-.765.393z" fill="#fff"/></g><defs><clipPath id="clip0"><path fill="#fff" d="M0 0h30v30H0z"/></clipPath></defs></svg>