<svg width="52" height="52" viewBox="0 0 52 52" fill="none" xmlns="http://www.w3.org/2000/svg">
<path d="M28.5483 23.5233H23.6918C24.1527 21.6679 25.1845 20.8295 26.5809 20.8295C27.7985 20.8295 28.6859 21.4971 29.2362 21.9319L30.3368 19.2769C29.3188 18.3454 28.053 17.833 26.5809 17.833C23.6092 17.833 21.3598 19.9057 20.6651 23.5233H19.2274L18.6702 25.2234H20.4587C20.4449 25.4796 20.4381 25.7435 20.4381 26.0152C20.4381 26.2714 20.4449 26.5276 20.4587 26.776H19.2274L18.6702 28.5149H20.6651C21.3598 32.1247 23.6092 34.1663 26.5809 34.1663C27.998 34.1663 29.2981 33.6928 30.2956 32.7612L29.1812 30.1063C28.679 30.5255 27.7916 31.1698 26.5809 31.1698C25.1845 31.1698 24.1527 30.3625 23.6918 28.5149H26.4846L27.2344 26.776H23.451C23.4373 26.5353 23.4304 26.2791 23.4304 26.0152C23.4304 25.7357 23.4373 25.4718 23.451 25.2234H27.8673L28.5483 23.5233Z" fill="#E20613"/>
<path d="M47.1549 21.488C47.9854 21.488 48.6588 20.8146 48.6588 19.984V15.4723H50.1627C50.9932 15.4723 51.6666 14.799 51.6666 13.9684C51.6666 13.1379 50.9932 12.4645 50.1627 12.4645H47.1549C46.3243 12.4645 45.651 13.1379 45.651 13.9684V18.4801H40.733C39.147 15.3853 36.6142 12.8525 33.5194 11.2666V6.34863H38.0312C38.8617 6.34863 39.5351 5.67528 39.5351 4.84473V1.83691C39.5351 1.00636 38.8617 0.333008 38.0312 0.333008C37.2006 0.333008 36.5273 1.00636 36.5273 1.83691V3.34082H32.0155C31.185 3.34082 30.5116 4.01417 30.5116 4.84473V10.0821C29.5421 9.80692 28.5364 9.61933 27.5038 9.52579V1.83691C27.5038 1.00636 26.8305 0.333008 25.9999 0.333008C25.1694 0.333008 24.496 1.00636 24.496 1.83691V9.52579C23.4634 9.61933 22.4577 9.80692 21.4882 10.0821V4.84473C21.4882 4.01417 20.8148 3.34082 19.9843 3.34082H15.4726V1.83691C15.4726 1.00636 14.7992 0.333008 13.9687 0.333008C13.1381 0.333008 12.4648 1.00636 12.4648 1.83691V4.84473C12.4648 5.67528 13.1381 6.34863 13.9687 6.34863H18.4804V11.2666C15.3855 12.8525 12.8528 15.3854 11.2669 18.4801H6.34888V13.9684C6.34888 13.1379 5.67553 12.4645 4.84497 12.4645H1.83716C1.0066 12.4645 0.333252 13.1379 0.333252 13.9684C0.333252 14.799 1.0066 15.4723 1.83716 15.4723H3.34106V19.984C3.34106 20.8146 4.01441 21.488 4.84497 21.487H10.0824C9.80716 22.4575 9.61957 23.4632 9.52603 24.4958H1.83716C1.0066 24.4958 0.333252 25.1691 0.333252 25.9997C0.333252 26.8302 1.0066 27.5036 1.83716 27.5036H9.52603C9.61957 28.5362 9.80716 29.5419 10.0824 30.5114H4.84497C4.01441 30.5114 3.34106 31.1847 3.34106 32.0153V36.527H1.83716C1.0066 36.527 0.333252 37.2004 0.333252 38.0309C0.333252 38.8615 1.0066 39.5348 1.83716 39.5348H4.84497C5.67553 39.5348 6.34888 38.8615 6.34888 38.0309V33.5192H11.2669C12.8529 36.614 15.3856 39.1468 18.4804 40.7327V45.6507H13.9687C13.1381 45.6507 12.4648 46.3241 12.4648 47.1546V50.1624C12.4648 50.993 13.1381 51.6663 13.9687 51.6663C14.7992 51.6663 15.4726 50.993 15.4726 50.1624V48.6585H19.9843C20.8148 48.6585 21.4882 47.9852 21.4882 47.1546V41.9172C22.4577 42.1924 23.4634 42.38 24.496 42.4736V50.1624C24.496 50.993 25.1694 51.6663 25.9999 51.6663C26.8305 51.6663 27.5038 50.993 27.5038 50.1624V42.4736C28.5364 42.38 29.5421 42.1924 30.5116 41.9172V47.1546C30.5116 47.9852 31.185 48.6585 32.0155 48.6585H36.5273V50.1624C36.5273 50.993 37.2006 51.6663 38.0312 51.6663C38.8617 51.6663 39.5351 50.993 39.5351 50.1624V47.1546C39.5351 46.3241 38.8617 45.6507 38.0312 45.6507H33.5194V40.7327C36.6143 39.1468 39.1471 36.6139 40.733 33.5192H45.651V38.0309C45.651 38.8615 46.3243 39.5348 47.1549 39.5348H50.1627C50.9932 39.5348 51.6666 38.8615 51.6666 38.0309C51.6666 37.2004 50.9932 36.527 50.1627 36.527H48.6588V32.0153C48.6588 31.1847 47.9854 30.5114 47.1549 30.5114H41.9175C42.1927 29.5419 42.3803 28.5362 42.4738 27.5036H50.1627C50.9932 27.5036 51.6666 26.8302 51.6666 25.9997C51.6666 25.1691 50.9932 24.4958 50.1627 24.4958H42.4738C42.3803 23.4632 42.1927 22.4575 41.9175 21.488H47.1549ZM25.9999 39.5348C18.5366 39.5348 12.4648 33.463 12.4648 25.9997C12.4648 18.5364 18.5366 12.4645 25.9999 12.4645C33.4632 12.4645 39.5351 18.5364 39.5351 25.9997C39.5351 33.463 33.4632 39.5348 25.9999 39.5348Z" fill="#E20613"/>
</svg>
